<svg xmlns="http://www.w3.org/2000/svg" style="position:absolute; width: 0; height: 0"><symbol viewBox="0 0 18 17" id="icon-columns"><path d="M8 0h2a1 1 0 0 1 1 1v15a1 1 0 0 1-1 1H8a1 1 0 0 1-1-1V1a1 1 0 0 1 1-1zm7 0h2a1 1 0 0 1 1 1v15a1 1 0 0 1-1 1h-2a1 1 0 0 1-1-1V1a1 1 0 0 1 1-1zM1 0h2a1 1 0 0 1 1 1v15a1 1 0 0 1-1 1H1a1 1 0 0 1-1-1V1a1 1 0 0 1 1-1z" fill="currentColor"></path></symbol><symbol viewBox="0 0 20 4" id="icon-dots"><circle cx="18" cy="2" r="2" fill="currentColor"></circle><circle cx="10" cy="2" r="2" fill="currentColor"></circle><circle cx="2" cy="2" r="2" fill="currentColor"></circle></symbol><symbol viewBox="0 0 17 17.96" id="icon-download"><path d="M0 14.96h17v3H0zM10 0v11.58H7V0z" fill="currentColor"></path><path d="M4.262 6.925l5.657 5.657-1.416 1.414L2.848 8.34z" fill="currentColor"></path><path d="M14.15 8.336l-5.656 5.657L7.08 12.58l5.657-5.658z" fill="currentColor"></path></symbol><symbol viewBox="0 0 21 17" id="icon-graph"><path d="M18 6h3v11h-3V6zm-6-6h3v17h-3V0zM6 4h3v13H6V4zM0 9h3v8H0V9z" fill="currentColor"></path></symbol><symbol viewBox="0 0 15 14" id="icon-reload"><path d="M13.87 3.2a6.89 6.89 0 0 0-1.75-1.76L13.65 0H9.21v4.2l2.07-2a5.56 5.56 0 0 1 2.55 4.59 5.79 5.79 0 0 1-5.94 5.6v1.11A6.93 6.93 0 0 0 15 6.83a6.4 6.4 0 0 0-1.13-3.63zM0 7.17a6.4 6.4 0 0 0 1.13 3.63 6.89 6.89 0 0 0 1.75 1.76L1.35 14h4.43V9.8l-2.07 2a5.55 5.55 0 0 1-2.54-4.59 5.79 5.79 0 0 1 5.94-5.6V.46A6.93 6.93 0 0 0 0 7.17z" fill="currentColor"></path></symbol><symbol viewBox="0 0 18 18" id="icon-settings"><path d="M17.07 7h-1.68a.63.63 0 0 1-.6-.4.64.64 0 0 1 .14-.7l1.19-1.19a.93.93 0 0 0 0-1.31L14.6 1.88a1 1 0 0 0-1.31 0L12.1 3.07a.62.62 0 0 1-.7.14.63.63 0 0 1-.4-.6V.93a.93.93 0 0 0-.93-.93H7.93A.93.93 0 0 0 7 .92V2.6a.63.63 0 0 1-.4.6.62.62 0 0 1-.7-.14L4.7 1.87a1 1 0 0 0-1.31 0L1.88 3.4a.91.91 0 0 0 0 1.28l1.19 1.19a.65.65 0 0 1-.46 1.1H.93a.92.92 0 0 0-.93.92v2.15a.92.92 0 0 0 .92.93h1.69a.65.65 0 0 1 .46 1.1l-1.19 1.19a.91.91 0 0 0 0 1.28l1.51 1.52a1 1 0 0 0 1.31 0l1.2-1.19a.62.62 0 0 1 .7-.14.63.63 0 0 1 .4.6v1.68a.92.92 0 0 0 .92.93h2.15a.93.93 0 0 0 .93-.87v-1.68a.63.63 0 0 1 .4-.6.62.62 0 0 1 .7.14l1.19 1.19a1 1 0 0 0 1.31 0l1.52-1.52a.93.93 0 0 0 0-1.31l-1.19-1.19a.64.64 0 0 1-.14-.7.63.63 0 0 1 .6-.4h1.68a.93.93 0 0 0 .93-.93V7.93a.93.93 0 0 0-.93-.93zM9 13a4 4 0 1 1 4-4 4 4 0 0 1-4 4z" fill="currentColor"></path></symbol><symbol viewBox="0 0 19 16.92" id="icon-tree"><path d="M0 0h19v3H0zm7 6.42h12v3H7zm0 7.5h12v3H7z" fill="currentColor"></path><path d="M2.88 2.04h1v13.87h-1z" fill="currentColor"></path><path d="M2.88 14.92h5.5v1h-5.5zm.18-7.5h5.5v1h-5.5z" fill="currentColor"></path></symbol></svg>